<svg width="75" height="63" viewBox="0 0 75 63" fill="none" xmlns="http://www.w3.org/2000/svg">
<path d="M44.2022 -1.4668C44.4436 -1.77585 44.7876 -1.95158 45.1498 -1.994C45.5059 -2.03642 45.8861 -1.93946 46.1879 -1.69707C46.4958 -1.45468 46.6708 -1.10928 46.713 -0.745693C46.7553 -0.388168 46.6587 -0.00640377 46.4173 0.296584C45.7232 1.17525 45.5059 2.13269 45.524 3.12649C45.5421 4.15664 45.8198 5.26558 46.0974 6.37451C46.4595 7.82279 46.8217 9.28319 46.7915 10.7799C46.7613 12.3009 46.3268 13.8341 45.0713 15.3672V15.3732C44.8239 15.6762 44.4798 15.8459 44.1177 15.8823C43.7555 15.9186 43.3813 15.8156 43.0795 15.5671H43.0735C42.7717 15.3187 42.6027 14.9733 42.5665 14.6097C42.5303 14.2461 42.6329 13.8704 42.8804 13.5674C44.4859 11.6041 43.9125 9.31349 43.3512 7.05926C42.6389 4.21724 41.9388 1.39946 44.2022 -1.4668ZM70.2161 50.8652L65.4297 61.3304C65.3151 61.5849 65.128 61.7909 64.9107 61.9303C64.7055 62.0636 64.4701 62.1424 64.2226 62.1545C64.1985 62.1605 64.1743 62.1605 64.1502 62.1605H11.1507C10.8429 62.1605 10.5532 62.0575 10.3178 61.8879C10.0763 61.7121 9.89527 61.4637 9.80474 61.1728L5.67632 50.8652L5.42282 50.8531C4.02254 50.7622 2.8335 50.1016 1.98851 49.126C1.15558 48.1565 0.666687 46.8657 0.666687 45.5144C0.666687 45.4053 0.672723 45.2841 0.678758 45.1569C0.727044 44.4115 0.841722 43.7329 1.01676 43.1208C1.47547 41.4907 2.35065 40.3273 3.49139 39.594C4.62007 38.8608 6.00225 38.5639 7.48703 38.6548C8.04835 38.6911 8.62174 38.782 9.20117 38.9275C11.1084 34.4433 13.5408 30.6741 16.3474 27.62C19.3834 24.3053 22.8539 21.8269 26.5417 20.1907C28.274 19.4211 30.0545 18.8394 31.8592 18.4395C33.6759 18.0395 35.5289 17.8274 37.3939 17.8032C39.2469 17.779 41.1059 17.9426 42.9468 18.288C44.7756 18.6334 46.5863 19.1666 48.3547 19.8877C52.2478 21.4633 55.9537 23.9357 59.2432 27.2928C62.2791 30.3893 64.959 34.2433 67.1016 38.8548C68.3389 38.5033 69.6246 38.3942 70.8075 38.7033C71.9181 38.9881 72.9261 39.6425 73.6986 40.7878C74.6764 42.23 75.0265 44.254 74.7549 46.1386C74.4954 47.9504 73.6624 49.6472 72.2622 50.6167C72.1414 50.7016 72.0147 50.7622 71.8819 50.8046C71.7672 50.8409 71.6525 50.8591 71.5318 50.8652C71.5077 50.8712 71.4835 50.8712 71.4594 50.8712H70.2161V50.8652ZM64.2769 39.897C62.2912 35.6855 59.8346 32.1709 57.0703 29.3591C54.0826 26.3171 50.7388 24.0872 47.2321 22.6692C45.6447 22.0268 44.0211 21.5481 42.3854 21.233C40.7377 20.9179 39.0718 20.7725 37.4241 20.7967C35.7764 20.8209 34.1286 21.0088 32.499 21.3724C30.8814 21.7299 29.288 22.251 27.7428 22.9419C24.4594 24.4023 21.3631 26.6019 18.635 29.553C16.112 32.2799 13.903 35.6431 12.1466 39.6486L12.4363 39.8122L13.0278 40.1576C13.9814 40.7272 14.9411 41.2908 15.8766 41.4423C16.776 41.5877 17.7055 41.3453 18.6893 40.3455C19.311 39.7152 19.9326 39.2002 20.6026 38.8366C21.2907 38.4669 22.027 38.2548 22.8539 38.2367C23.6205 38.2245 24.4353 38.3882 25.3225 38.776C26.1856 39.1517 27.1332 39.7274 28.1895 40.5515C28.4913 40.7878 28.8594 40.9757 29.2578 41.109C29.6743 41.2484 30.1269 41.3332 30.5796 41.3514C31.0021 41.3696 31.4125 41.3271 31.7807 41.2302C32.1127 41.1393 32.4145 41.006 32.6559 40.8121C33.0844 40.4727 33.519 40.1455 33.9596 39.8486C34.4062 39.5456 34.865 39.2668 35.3418 39.0305C35.8548 38.776 36.386 38.5699 36.9292 38.4366C37.4784 38.3033 38.0397 38.2367 38.6252 38.267C41.13 38.3882 42.1319 39.5274 43.0856 40.6424C43.1037 40.6606 43.1218 40.6787 43.1399 40.703C43.659 41.309 44.172 41.8907 45.2162 41.8907C46.6889 41.8967 47.6003 41.0423 48.4634 40.2424L48.4694 40.2364C49.4955 39.285 50.4733 38.376 51.9098 38.1215C53.3282 37.8731 55.1449 38.2791 57.7946 39.9698C59.557 41.0908 60.8245 41.3393 61.8325 41.1696C62.7982 41.006 63.5587 40.4424 64.2769 39.897ZM30.6581 -1.41832C30.8874 -1.73343 31.2254 -1.92734 31.5815 -1.98188L31.6178 -1.98794C31.9618 -2.03036 32.33 -1.95158 32.6317 -1.72737C32.9456 -1.4971 33.1387 -1.15776 33.1931 -0.800231L33.1991 -0.763872C33.2414 -0.418467 33.1629 -0.048822 32.9396 0.254165C31.3944 2.37508 31.9014 4.61112 32.4084 6.83505L32.4145 6.86535C32.7162 8.20455 33.018 9.5377 32.9999 10.9193C32.9818 12.3373 32.6378 13.7795 31.6359 15.2702C31.4186 15.5974 31.0866 15.8035 30.7305 15.8701C30.3744 15.9368 29.9942 15.8701 29.6743 15.652C29.3483 15.4338 29.1431 15.1005 29.0767 14.743C29.0103 14.3855 29.0767 14.0037 29.294 13.6826C29.9519 12.7009 30.1692 11.701 30.1571 10.683C30.145 9.64071 29.9036 8.55602 29.6561 7.47132L29.6501 7.44103C28.9983 4.599 28.3585 1.7388 30.6581 -1.41832ZM30.1511 25.3961C30.4166 25.1112 30.7728 24.9598 31.1349 24.9476C31.497 24.9355 31.8652 25.0628 32.1489 25.3233C32.4326 25.59 32.5835 25.9475 32.5955 26.3111C32.6076 26.6747 32.4809 27.0443 32.2213 27.3291L28.3585 31.4982C28.0929 31.783 27.7368 31.9345 27.3747 31.9466C27.0125 31.9588 26.6443 31.8376 26.3607 31.5709C26.077 31.3043 25.9261 30.9468 25.914 30.5832C25.9019 30.2196 26.0227 29.85 26.2882 29.5652L30.1511 25.3961ZM44.1479 27.3291C43.8823 27.0443 43.7555 26.6747 43.7736 26.3111C43.7857 25.9475 43.9366 25.59 44.2203 25.3233C44.504 25.0567 44.8721 24.9295 45.2343 24.9476C45.5964 24.9598 45.9525 25.1112 46.2181 25.3961L50.081 29.5652C50.3465 29.85 50.4733 30.2196 50.4552 30.5832C50.4431 30.9468 50.2922 31.3043 50.0085 31.5709C49.7249 31.8376 49.3567 31.9648 48.9945 31.9466C48.6324 31.9345 48.2763 31.783 48.0107 31.4982L44.1479 27.3291ZM36.6395 27.3231V27.2806C36.6515 26.9049 36.8085 26.5656 37.062 26.3232C37.3155 26.0687 37.6716 25.9172 38.0578 25.9172H38.1001C38.4743 25.9293 38.8123 26.0869 39.0537 26.3353C39.3072 26.5959 39.4642 26.9474 39.4581 27.3352L39.4098 32.2739C39.3978 32.6496 39.2348 32.9889 38.9873 33.2313C38.7338 33.4858 38.3777 33.6373 37.9915 33.6373H37.9492C37.575 33.6252 37.237 33.4676 36.9956 33.2192C36.7421 32.9586 36.5851 32.6072 36.5912 32.2193L36.6395 27.3231ZM66.0092 42.3452C64.9227 43.1754 63.7639 44.0116 62.2067 44.254C60.6495 44.4964 58.7361 44.1267 56.1951 42.5088C52.7849 40.3333 51.6985 41.3271 50.5155 42.43L50.4853 42.4542C49.8637 43.036 49.2179 43.6359 48.397 44.0964C47.558 44.5691 46.544 44.8903 45.2222 44.8842C44.009 44.8842 43.152 44.5994 42.476 44.1692C41.806 43.7389 41.3352 43.1935 40.8584 42.6421L40.8222 42.5936C40.5446 42.2725 40.2669 41.9513 39.9168 41.715C39.5607 41.4726 39.1141 41.2968 38.4924 41.2665C38.1967 41.2544 37.9009 41.2908 37.6052 41.3635C37.2973 41.4423 36.9895 41.5695 36.6757 41.721C36.3196 41.8968 35.9695 42.1149 35.6134 42.3573C35.2512 42.6057 34.8831 42.8845 34.5149 43.1754C33.9777 43.5995 33.356 43.9025 32.68 44.0904C31.9799 44.2903 31.2254 44.3752 30.471 44.3449C29.7225 44.3146 28.962 44.1752 28.2559 43.9268C27.5678 43.6904 26.9159 43.3511 26.3667 42.9208C25.576 42.3088 24.9061 41.8725 24.3206 41.5998C23.7653 41.3393 23.3066 41.2241 22.9022 41.2302C22.5642 41.2362 22.2383 41.3453 21.9063 41.5453C21.5502 41.7574 21.1941 42.0664 20.8199 42.4482C20.1861 43.0905 19.5705 43.5692 18.973 43.9146C18.3694 44.26 17.7839 44.46 17.2105 44.557C16.0698 44.7994 14.9894 44.6236 13.9452 44.2358C12.9312 43.8601 11.9595 43.2844 10.9877 42.7148C9.76249 41.9937 8.47085 41.5332 7.29992 41.4604C6.62392 41.418 5.99017 41.5029 5.44696 41.7513C4.91582 41.9937 4.46314 42.3876 4.12514 42.9572C3.78111 43.545 3.55779 44.3267 3.49139 45.3326C3.44311 46.1143 3.63022 46.7445 4.01046 47.193C4.39675 47.6474 4.98825 47.9323 5.75478 48.0232H70.9343C71.5379 47.3929 71.8879 46.4173 71.9845 45.3932C72.0871 44.2843 71.8819 43.1451 71.3508 42.3633C70.8619 41.6422 70.1436 41.3574 69.359 41.3393C68.2605 41.3211 67.0111 41.7937 66.0092 42.3452ZM37.4482 -1.41227C37.6776 -1.72737 38.0096 -1.92128 38.3717 -1.98188C38.7278 -2.03642 39.1081 -1.95764 39.4219 -1.73343C39.7358 -1.50316 39.9289 -1.16988 39.9893 -0.80629C40.0436 -0.448765 39.9651 -0.0670012 39.7418 0.248106C38.9572 1.3328 38.7037 2.41144 38.7097 3.49007C38.7157 4.59294 38.9994 5.72006 39.2771 6.83505C39.6211 8.20455 39.9591 9.56194 39.9349 10.9617C39.9108 12.3918 39.5185 13.8401 38.3838 15.3369C38.1484 15.6459 37.8104 15.8338 37.4482 15.8823C37.0921 15.9307 36.7119 15.8398 36.4041 15.6035C36.0962 15.3672 35.9091 15.0278 35.8609 14.6642C35.8126 14.3067 35.9031 13.925 36.1385 13.6159C36.8567 12.6706 37.0921 11.695 37.0801 10.7012C37.068 9.67707 36.8024 8.6045 36.5308 7.5198C36.1807 6.13212 35.8307 4.72626 35.8548 3.24768C35.8669 1.75092 36.2713 0.205687 37.4482 -1.41227ZM67.0292 51.047H8.79074L12.1043 59.3185H63.2509L67.0292 51.047Z" fill="black"/>
</svg>
