<svg width="55" height="58" viewBox="0 0 55 58" fill="none" xmlns="http://www.w3.org/2000/svg">
<path d="M28.7092 3.10915C34.5442 3.10915 36.347 3.15737 42.1873 3.15737C42.8512 3.15737 43.4936 3.2163 44.1143 3.33417C44.7296 3.45203 45.318 3.61812 45.8685 3.85385C46.4245 4.08422 46.9589 4.37889 47.4771 4.72177C47.9898 5.06465 48.4756 5.46647 48.9344 5.9165C49.3932 6.37189 49.7981 6.85942 50.1381 7.36303C50.489 7.87735 50.7859 8.41311 51.0126 8.95958C51.2393 9.5114 51.4174 10.09 51.5361 10.7008C51.6549 11.3169 51.7143 11.9491 51.7143 12.6134V31.7827C51.7143 32.4416 51.6549 33.0792 51.5361 33.6899C51.4174 34.3061 51.2447 34.8847 51.0126 35.4311C50.7805 35.9883 50.4836 36.5187 50.1381 37.0277C49.7927 37.5366 49.3878 38.0188 48.9344 38.4742L48.9236 38.4796C48.4487 38.9403 47.9521 39.3421 47.4393 39.6797C46.9265 40.0225 46.3867 40.3065 45.8362 40.5422C45.2802 40.7672 44.7026 40.944 44.0873 41.0619C43.4774 41.1798 42.8404 41.2387 42.1765 41.2387H34.8896C34.6629 41.2387 34.4362 41.2923 34.2311 41.3941C34.0368 41.4905 33.8641 41.6244 33.7291 41.8066L33.7183 41.8173C33.1408 42.5727 32.5416 43.3121 31.9047 44.0193C31.2678 44.7211 30.6092 45.4069 29.9021 46.0498C29.2166 46.6873 28.4879 47.2927 27.7377 47.882C26.9874 48.4714 26.2047 49.0178 25.4113 49.5375C24.6502 50.0358 23.8459 50.5126 23.0093 50.9626C22.1834 51.4073 21.336 51.8198 20.4724 52.2002C20.3752 52.2431 20.2672 52.2377 20.1755 52.1841C20.0135 52.0931 19.9596 51.8895 20.0459 51.7287C20.2025 51.4609 20.3482 51.1876 20.4993 50.9037C20.6451 50.6412 20.7692 50.3679 20.8988 50.084C21.1417 49.5375 21.3792 48.9857 21.6005 48.4124C21.8272 47.8338 22.0431 47.2606 22.2482 46.6605C22.4479 46.1033 22.626 45.5301 22.8042 44.9461C22.9823 44.3621 23.1442 43.7782 23.3062 43.1888C23.3493 43.012 23.3925 42.8406 23.3925 42.6584C23.3925 42.2673 23.2306 41.903 22.9715 41.6405L22.9553 41.6244C22.6908 41.3619 22.313 41.1905 21.9135 41.1905H13.4338C12.7698 41.1905 12.1329 41.1315 11.523 41.0137C10.9184 40.8958 10.3463 40.7297 9.7957 40.4994L9.7849 40.494C9.23974 40.2797 8.71076 39.9957 8.20877 39.6582C7.6852 39.31 7.17781 38.8921 6.69202 38.426L6.68662 38.4206C6.22782 37.9652 5.82299 37.4831 5.47754 36.9741C5.12669 36.4598 4.83521 35.9294 4.60311 35.3776C4.37641 34.8257 4.19828 34.2471 4.07953 33.6364C3.96078 33.0202 3.90141 32.3881 3.90141 31.7237V27.8234C3.90141 25.8679 1.34829 25.8519 0.921875 27.2448V31.6969C0.921875 32.5327 1.00284 33.3471 1.14858 34.1293C1.30511 34.9275 1.53182 35.699 1.83409 36.4544C2.13096 37.1777 2.5088 37.8795 2.9676 38.5492C3.42641 39.2135 3.96078 39.8565 4.56532 40.4619C5.16987 41.0673 5.81219 41.5923 6.49231 42.0477C7.15622 42.4977 7.86332 42.8727 8.59201 43.1674L8.60281 43.1728C9.35309 43.4728 10.1358 43.7032 10.94 43.8532C11.7281 44.0032 12.5485 44.0782 13.3906 44.0782H19.4846C19.5224 44.0782 19.5655 44.0835 19.6033 44.0943C19.7814 44.1532 19.8732 44.3354 19.8192 44.5122L19.8138 44.5229C19.6951 44.8925 19.5817 45.2622 19.4468 45.6587L19.4414 45.6801C19.2525 46.2158 19.0474 46.7623 18.8261 47.3034C18.6209 47.8177 18.405 48.3267 18.1837 48.8142C18.1783 48.841 18.1729 48.8625 18.1621 48.8893C17.9408 49.3821 17.6925 49.8697 17.4011 50.3519C17.115 50.834 16.7857 51.3055 16.4349 51.7716C16.0732 52.2377 15.6684 52.7092 15.2204 53.186L15.2042 53.2074C14.7508 53.6842 14.2596 54.1557 13.7306 54.6111C13.4284 54.879 13.261 55.254 13.2394 55.6237C13.2178 55.9933 13.342 56.3737 13.6119 56.6791C13.8062 56.888 14.0383 57.0327 14.292 57.1077C14.5457 57.1827 14.8264 57.1934 15.0854 57.1184C16.192 56.8238 17.2823 56.4969 18.3349 56.138C19.3928 55.779 20.413 55.3879 21.3954 54.9647C22.3885 54.5414 23.3547 54.0753 24.2939 53.5717C25.2277 53.0735 26.1345 52.5324 27.009 51.9645C27.878 51.4019 28.72 50.8072 29.5351 50.1697C30.3502 49.5322 31.1328 48.8678 31.8885 48.1767L31.9047 48.1606C32.5362 47.5659 33.1516 46.9445 33.7507 46.2962C34.3552 45.6426 34.9328 44.9622 35.478 44.2764C35.5373 44.1853 35.6453 44.121 35.7587 44.121H42.1657C43.024 44.121 43.8444 44.0407 44.6379 43.896C45.4367 43.7407 46.2032 43.5156 46.9427 43.221L46.9535 43.2156C47.693 42.9049 48.4001 42.5245 49.0748 42.0745C49.7441 41.6244 50.3864 41.1048 50.9964 40.5047C51.6063 39.8993 52.1353 39.2618 52.5941 38.5921C53.0475 37.9277 53.4307 37.2206 53.7276 36.4973C54.0299 35.7633 54.262 34.9918 54.4131 34.1935C54.5642 33.4113 54.6398 32.5916 54.6398 31.7398V12.5545C54.6398 11.7026 54.5588 10.8829 54.4131 10.1007C54.2566 9.30246 54.0299 8.53633 53.7276 7.80235C53.4307 7.07908 53.0475 6.37189 52.5941 5.70755C52.1353 5.03786 51.6009 4.39496 51.0018 3.79492C50.3918 3.18951 49.7549 2.66448 49.0748 2.20909C48.4109 1.75905 47.7038 1.38403 46.9751 1.08936L46.9643 1.08401C46.2086 0.783984 45.4313 0.55361 44.6217 0.403599C43.8336 0.253588 43.0132 0.178583 42.1711 0.178583C36.1041 0.178583 34.0746 0.151794 28.0075 0.151794C26.5826 0.564324 26.4854 3.10915 28.7092 3.10915ZM16.7749 32.6559C16.0031 32.6666 15.3715 32.0505 15.3607 31.2844C15.3499 30.5183 15.9707 29.8914 16.7425 29.8807L31.5538 29.6557L34.3876 29.4736C35.1595 29.4253 35.8234 30.0093 35.872 30.7701C35.9206 31.5362 35.3322 32.1952 34.5658 32.2434L31.732 32.4256C31.7266 32.4256 18.0218 32.6345 16.7749 32.6559ZM21.2064 23.9446C20.4346 23.9446 19.803 23.3231 19.803 22.5516C19.803 21.7855 20.4346 21.1587 21.2064 21.1587H41.2103C41.9822 21.1587 42.6137 21.7855 42.6137 22.5516C42.6137 23.3178 41.9822 23.9446 41.2103 23.9446H21.2064ZM27.4354 15.6351C26.6635 15.6351 26.032 15.0082 26.032 14.2421C26.032 13.476 26.6635 12.8491 27.4354 12.8491H41.2103C41.9822 12.8491 42.6137 13.476 42.6137 14.2421C42.6137 15.0082 41.9822 15.6351 41.2103 15.6351H27.4354Z" fill="black"/>
</svg>
