<svg width="75" height="63" viewBox="0 0 75 63" fill="none" xmlns="http://www.w3.org/2000/svg">
<g clip-path="url(#clip0_6_125)">
<path d="M26.8902 49.0661C24.8157 45.319 23.7176 41.1078 23.6975 36.8223C23.6775 32.5368 24.7362 28.3154 26.7756 24.549C28.8149 20.7826 31.7691 17.5929 35.3646 15.2751C38.9602 12.9573 43.0808 11.5863 47.3452 11.2891V7.01703C47.3452 6.95046 47.3452 6.88995 47.3452 6.82339H42.583C42.2089 6.8202 41.8513 6.66897 41.5879 6.40264C41.3245 6.13631 41.1767 5.77644 41.1767 5.40138V1.92201C41.1783 1.54744 41.3265 1.18847 41.5896 0.922478C41.8527 0.656484 42.2094 0.504758 42.583 0.5L56.8937 0.5C57.2694 0.501593 57.6292 0.651922 57.8949 0.918256C58.1605 1.18459 58.3105 1.54536 58.3121 1.92201V5.40138C58.3121 5.77852 58.1626 6.14022 57.8966 6.40689C57.6306 6.67357 57.2699 6.82339 56.8937 6.82339H52.1375C52.1375 6.88995 52.1375 6.95046 52.1375 7.01703V11.392C56.4526 11.9154 60.5616 13.54 64.0714 16.1104C67.5812 18.6809 70.3745 22.1112 72.1841 26.0732C73.9936 30.0352 74.759 34.3964 74.4069 38.7397C74.0548 43.083 72.597 47.2631 70.173 50.8802C67.7491 54.4973 64.4399 57.4303 60.5622 59.3988C56.6844 61.3673 52.3677 62.3054 48.025 62.1234C43.6822 61.9414 39.4587 60.6453 35.7583 58.3592C32.058 56.0731 29.0046 52.8733 26.8902 49.0661ZM51.1356 32.8915C51.9812 33.3471 52.6508 34.0726 53.0383 34.9531C53.4258 35.8335 53.509 36.8185 53.2747 37.7517C53.0404 38.685 52.502 39.5131 51.745 40.1047C50.9879 40.6964 50.0555 41.0177 49.0955 41.0177C48.1356 41.0177 47.2032 40.6964 46.4461 40.1047C45.6891 39.5131 45.1507 38.685 44.9164 37.7517C44.6821 36.8185 44.7653 35.8335 45.1528 34.9531C45.5403 34.0726 46.2099 33.3471 47.0555 32.8915V22.998C47.0555 22.4555 47.2704 21.9353 47.653 21.5517C48.0356 21.1682 48.5545 20.9527 49.0955 20.9527C49.6366 20.9527 50.1555 21.1682 50.5381 21.5517C50.9207 21.9353 51.1356 22.4555 51.1356 22.998V32.8915ZM71.9105 19.1071C72.9003 16.7472 72.7796 14.2662 71.3733 12.6203C69.6773 10.6356 66.6172 10.4056 63.7744 11.8034C66.8 13.8623 69.5364 16.3187 71.9105 19.1071ZM26.2806 19.1071C25.2968 16.7472 25.4115 14.2662 26.8238 12.6203C28.5199 10.6356 31.58 10.4056 34.4228 11.8034C31.3986 13.8642 28.6624 16.3204 26.2866 19.1071H26.2806ZM28.4474 42.1012C29.7647 47.2162 32.9152 51.6655 37.2972 54.5992C41.6792 57.5329 46.9857 58.7454 52.2029 58.0052C57.4202 57.265 62.1827 54.6238 65.5806 50.5863C68.9786 46.5488 70.774 41.3978 70.6238 36.1172C70.4736 30.8367 68.3883 25.7967 64.7664 21.9598C61.1444 18.123 56.2396 15.7583 50.9887 15.3173C45.7378 14.8764 40.5089 16.3901 36.3008 19.5694C32.0926 22.7487 29.2002 27.3707 28.1758 32.5526C27.5567 35.7161 27.6495 38.9783 28.4474 42.1012Z" fill="black"/>
<path d="M8.13138 27.1853C7.59032 27.1853 7.07142 26.9698 6.68883 26.5863C6.30624 26.2027 6.09131 25.6825 6.09131 25.1401C6.09131 24.5976 6.30624 24.0774 6.68883 23.6938C7.07142 23.3103 7.59032 23.0948 8.13138 23.0948H19.0439C19.3118 23.0948 19.5771 23.1477 19.8246 23.2505C20.0721 23.3533 20.297 23.5039 20.4865 23.6938C20.6759 23.8838 20.8262 24.1092 20.9287 24.3574C21.0312 24.6055 21.084 24.8715 21.084 25.1401C21.084 25.4086 21.0312 25.6746 20.9287 25.9227C20.8262 26.1709 20.6759 26.3964 20.4865 26.5863C20.297 26.7762 20.0721 26.9269 19.8246 27.0296C19.5771 27.1324 19.3118 27.1853 19.0439 27.1853H8.13138Z" fill="black"/>
<path d="M2.37332 38.9002C1.83226 38.9002 1.31336 38.6847 0.930773 38.3012C0.548187 37.9176 0.333252 37.3974 0.333252 36.855C0.333252 36.3125 0.548187 35.7923 0.930773 35.4087C1.31336 35.0252 1.83226 34.8097 2.37332 34.8097H16.859C17.4001 34.8097 17.919 35.0252 18.3015 35.4087C18.6841 35.7923 18.8991 36.3125 18.8991 36.855C18.8991 37.3974 18.6841 37.9176 18.3015 38.3012C17.919 38.6847 17.4001 38.9002 16.859 38.9002H2.37332Z" fill="black"/>
<path d="M8.23391 50.9237C7.69285 50.9237 7.17396 50.7082 6.79137 50.3247C6.40878 49.9411 6.19385 49.4209 6.19385 48.8785C6.19385 48.336 6.40878 47.8158 6.79137 47.4322C7.17396 47.0487 7.69285 46.8332 8.23391 46.8332H19.2249C19.766 46.8332 20.2849 47.0487 20.6675 47.4322C21.0501 47.8158 21.265 48.336 21.265 48.8785C21.265 49.4209 21.0501 49.9411 20.6675 50.3247C20.2849 50.7082 19.766 50.9237 19.2249 50.9237H8.23391Z" fill="black"/>
</g>
<defs>
<clipPath id="clip0_6_125">
<rect width="74.1667" height="61.6667" fill="white" transform="translate(0.333252 0.5)"/>
</clipPath>
</defs>
</svg>
