<?xml version="1.0" encoding="UTF-8"?>
<svg width="20px" height="20px" viewBox="0 0 20 20" version="1.1" xmlns="http://www.w3.org/2000/svg" xmlns:xlink="http://www.w3.org/1999/xlink">
    <title>Actions / Toggle / radio-button / 20@1x</title>
    <g id="Partnership" stroke="none" stroke-width="1" fill="none" fill-rule="evenodd">
        <g id="Partnership---06" transform="translate(-528, -437)" fill="#FFD127">
            <g id="Group-13" transform="translate(504, 325)">
                <g id="Actions-/-Toggle-/-radio-button-/-20" transform="translate(24, 112)">
                    <path d="M10,0 C12.6521649,0 15.195704,1.0535684 17.0710678,2.92893219 C18.9464316,4.80429597 20,7.3478351 20,10 C20,15.5228475 15.5228475,20 10,20 C4.4771525,20 0,15.5228475 0,10 C0,4.4771525 4.4771525,0 10,0 Z M13.878125,7.36875 C13.6031302,7.09548468 13.1591692,7.09528258 12.8839257,7.36829741 L8.75,11.46875 L7.11219681,9.85976446 C6.83771264,9.59010993 6.39826613,9.58855042 6.121875,9.85625 L6.11223437,9.86577604 C5.84851021,10.131627 5.85023433,10.5609325 6.11608529,10.8246566 L8.75,13.4375 L13.8774788,8.35559882 C14.1518472,8.07952253 14.1504587,7.63937089 13.878125,7.36875 Z" id="Fill"></path>
                </g>
            </g>
        </g>
    </g>
</svg>