<?xml version="1.0" encoding="UTF-8"?>
<svg width="13.5px" height="15.5px" viewBox="0 0 13.5 15.5" version="1.1" xmlns="http://www.w3.org/2000/svg" xmlns:xlink="http://www.w3.org/1999/xlink">
    <title>Organization / File / copy / 24@1.5x</title>
    <g id="Partnership" stroke="none" stroke-width="1" fill="none" fill-rule="evenodd" fill-opacity="0.48">
        <g id="Partnership--vers-1" transform="translate(-313.25, -326.25)" fill="#E2DFEE">
            <g id="List-/-01" transform="translate(63, 276)">
                <g id="Group-10" transform="translate(32, 28)">
                    <g id="Organization-/-File-/-copy-/-24" transform="translate(218.25, 22.25)">
                        <path d="M12.25,14.25 L4,14.25 L4,4 L12.25,4 L12.25,14.25 Z M12.25,2.75 L4,2.75 C3.30964406,2.75 2.75,3.30964406 2.75,4 L2.75,14.25 C2.75,14.9403559 3.30964406,15.5 4,15.5 L12.25,15.5 C12.9403559,15.5 13.5,14.9403559 13.5,14.25 L13.5,4 C13.5,3.30964406 12.9403559,2.75 12.25,2.75 Z M1.25,12 L0,12 L0,1.25 C0,0.559644063 0.559644063,0 1.25,0 L9,0 L9,1.25 L1.25,1.25 L1.25,12 Z" id="Fill"></path>
                    </g>
                </g>
            </g>
        </g>
    </g>
</svg>