<?xml version="1.0" encoding="UTF-8"?>
<svg width="17.5px" height="17.5px" viewBox="0 0 17.5 17.5" version="1.1" xmlns="http://www.w3.org/2000/svg" xmlns:xlink="http://www.w3.org/1999/xlink">
    <title>Actions / Operations / restart / 24@1x</title>
    <g id="Partnership" stroke="none" stroke-width="1" fill="none" fill-rule="evenodd">
        <g id="Partnership---02" transform="translate(-1278.250000, -363.250000)" fill="#FFD127">
            <g id="Actions-/-Operations-/-restart-/-24" transform="translate(1278.250000, 363.250000)">
                <path d="M9.375,12.5 L9.375,7.5 L6.875,7.5 L6.875,8.75 L8.125,8.75 L8.125,12.5 L6.25,12.5 L6.25,13.75 L11.25,13.75 L11.25,12.5 L9.375,12.5 L9.375,12.5 Z M8.75,3.75 C8.23223305,3.75 7.8125,4.16973305 7.8125,4.6875 C7.8125,5.20526695 8.23223305,5.625 8.75,5.625 C9.26776695,5.625 9.6875,5.20526695 9.6875,4.6875 C9.6875,4.16973305 9.26776695,3.75 8.75,3.75 Z M8.75,17.5 C3.91750844,17.5 0,13.5824916 0,8.75 C0,3.91750844 3.91750844,0 8.75,0 C13.5824916,0 17.5,3.91750844 17.5,8.75 C17.5,11.0706443 16.5781276,13.296241 14.9371843,14.9371843 C13.296241,16.5781276 11.0706443,17.5 8.75,17.5 Z M8.75,1.25 C4.60786438,1.25 1.25,4.60786438 1.25,8.75 C1.25,12.8921356 4.60786438,16.25 8.75,16.25 C12.8921356,16.25 16.25,12.8921356 16.25,8.75 C16.25,4.60786438 12.8921356,1.25 8.75,1.25 Z" id="Fill"></path>
            </g>
        </g>
    </g>
</svg>