<?xml version="1.0" encoding="UTF-8"?>
<svg width="24px" height="24px" viewBox="0 0 24 24" version="1.1" xmlns="http://www.w3.org/2000/svg" xmlns:xlink="http://www.w3.org/1999/xlink">
    <title>Brand / Social / logo--twitter / 24@2x</title>
    <g id="Login" stroke="none" stroke-width="1" fill="none" fill-rule="evenodd">
        <g id="Homepage" transform="translate(-575.000000, -308.000000)" fill="#E131BB">
            <g id="Group-10" transform="translate(319.000000, 238.000000)">
                <g id="Group-9" transform="translate(1.000000, 52.000000)">
                    <g id="Button-/-Large-/-Green-/-01-enabled" transform="translate(216.000000, 0.000000)">
                        <g id="Group" transform="translate(35.000000, 14.000000)">
                            <g id="Brand-/-Social-/-logo--twitter-/-24" transform="translate(4.000000, 4.000000)">
                                <path d="M18.4056,7.0344 C19.20089,7.0344 19.8456,6.38969004 19.8456,5.5944 C19.8456,4.79910996 19.20089,4.1544 18.4056,4.1544 C17.61031,4.1544 16.9656,4.79910996 16.9656,5.5944 C16.9656,6.38969004 17.61031,7.0344 18.4056,7.0344 Z M12,5.8378 C8.59671091,5.8378 5.8378,8.59671091 5.8378,12 C5.8378,15.4032891 8.59671091,18.1622 12,18.1622 C15.4032891,18.1622 18.1622,15.4032891 18.1622,12 C18.1622,8.59671091 15.4032891,5.8378 12,5.8378 L12,5.8378 Z M12,16 C9.790861,16 8,14.209139 8,12 C8,9.790861 9.790861,8 12,8 C14.209139,8 16,9.790861 16,12 C16,13.060866 15.5785726,14.0782816 14.8284271,14.8284271 C14.0782816,15.5785726 13.060866,16 12,16 Z M12,2.1621 C15.2041,2.1621 15.5837,2.1744 16.849,2.2322 C17.6099535,2.24125859 18.3636903,2.38102615 19.0773,2.6454 C20.1237635,3.04919396 20.950906,3.87633646 21.3547,4.9228 C21.6190739,5.63640969 21.7588414,6.39014647 21.7679,7.1511 C21.8256,8.4164 21.8379,8.796 21.8379,12.0001 C21.8379,15.2042 21.8257,15.5838 21.7679,16.8491 C21.7588414,17.6100535 21.6190739,18.3637903 21.3547,19.0774 C20.950906,20.1238635 20.1237635,20.951006 19.0773,21.3548 C18.3636903,21.6191739 17.6099535,21.7589414 16.849,21.768 C15.5838,21.8257 15.2044,21.838 12,21.838 C8.7956,21.838 8.4162,21.8258 7.151,21.768 C6.39004647,21.7589414 5.63630969,21.6191739 4.9227,21.3548 C3.87623646,20.951006 3.04909396,20.1238635 2.6453,19.0774 C2.38092615,18.3637903 2.24115859,17.6100535 2.2321,16.8491 C2.1744,15.5838 2.1621,15.2042 2.1621,12.0001 C2.1621,8.796 2.1743,8.4164 2.2321,7.1511 C2.24115859,6.39014647 2.38092615,5.63640969 2.6453,4.9228 C3.0490705,3.87629853 3.87621626,3.04911645 4.9227,2.6453 C5.63630969,2.38092615 6.39004647,2.24115859 7.151,2.2321 C8.4163,2.1744 8.7959,2.1621 12,2.1621 M12,0 C8.741,0 8.3323,0.0138 7.0524,0.0722 C6.05705039,0.0921831031 5.07229403,0.280789442 4.14,0.63 C2.52786856,1.25343194 1.25343194,2.52786856 0.63,4.14 C0.28073397,5.07245185 0.0921267326,6.05738197 0.0722,7.0529 C0.0138,8.3323 0,8.741 0,12 C0,15.259 0.0138,15.6677 0.0722,16.9476 C0.0921382979,17.9431168 0.280745165,18.928045 0.63,19.8605 C1.25343194,21.4726314 2.52786856,22.7470681 4.14,23.3705 C5.07245185,23.719766 6.05738197,23.9083733 7.0529,23.9283 C8.3323,23.9862 8.741,24 12,24 C15.259,24 15.6677,23.9862 16.9476,23.9278 C17.9431168,23.9078617 18.928045,23.7192548 19.8605,23.37 C21.4726314,22.7465681 22.7470681,21.4721314 23.3705,19.86 C23.7197548,18.927545 23.9083617,17.9426168 23.9283,16.9471 C23.9862,15.6677 24,15.259 24,12 C24,8.741 23.9862,8.3323 23.9278,7.0524 C23.9078169,6.05705039 23.7192106,5.07229403 23.37,4.14 C22.746451,2.52805815 21.4720307,1.25381934 19.86,0.6305 C18.927545,0.281245165 17.9426168,0.0926382979 16.9471,0.0727 C15.6677,0.0138 15.259,0 12,0 Z" id="Fill"></path>
                            </g>
                        </g>
                    </g>
                </g>
            </g>
        </g>
    </g>
</svg>