<?xml version="1.0" encoding="UTF-8"?>
<svg width="216px" height="46px" viewBox="0 0 216 46" version="1.1" xmlns="http://www.w3.org/2000/svg" xmlns:xlink="http://www.w3.org/1999/xlink">
    <title>Logo@1.5x</title>
    <g id="Symbols" stroke="none" stroke-width="1" fill="none" fill-rule="evenodd">
        <g id="Logo" fill-rule="nonzero">
            <g id="Group-26" transform="translate(0.000000, 0.000000)">
                <g id="Group-12">
                    <path d="M50.7553459,44.0312692 C50.1846573,44.2894816 49.5911926,44.5163808 48.9759051,44.7119924 C47.197549,45.2773657 45.352718,45.56 43.456,45.56 C41.1360321,45.56 38.9953187,45.1769802 37.0567016,44.3907633 C36.4015627,44.1250681 35.7823229,43.8163732 35.2013946,43.4652028 L34.902,43.277 L34.8257408,43.3851661 C34.1539099,44.2900613 33.1000342,44.924218 31.8098968,44.979999 L31.624,44.984 L21.928,44.984 C20.5640698,44.984 19.294146,44.2890142 18.5589144,43.1402148 C17.9862848,42.245481 17.6288492,41.2096474 17.4065888,40.006826 L17.456,40.256 L17.456,40.984 C17.456,43.1261954 15.7720315,44.8750789 13.6556403,44.9791047 L13.456,44.984 L6,44.984 C2.6862915,44.984 0,42.2977085 0,38.984 L0,7.584 C0,4.2702915 2.6862915,1.584 6,1.584 L19.696,1.584 C24.6487815,1.584 28.5835832,2.76179971 31.3526603,5.32405774 C33.7747522,7.56524653 35.1346955,10.5361696 35.4542877,14.0515381 L35.485,14.452 C36.5553227,13.6681178 37.7470634,13.017525 39.0554817,12.4979524 L39.4959297,12.3296151 C41.9787268,11.4169664 44.696663,10.968 47.632,10.968 C50.4163416,10.968 53.0579687,11.3898933 55.5397914,12.2397002 C57.6342534,12.9568701 59.4657756,13.9974814 61.0016438,15.3581672 L61.081,15.431 L61.0848953,15.2963597 C61.1271558,14.4365757 61.4408821,13.6481585 61.9421615,13.0150204 L62.017,12.925 L61.8677716,12.7172104 C61.0396296,11.5188161 60.5835558,10.0976069 60.5327656,8.54135777 L60.528,8.248 C60.528,5.57647734 61.6896738,3.2793329 63.8652643,1.79077096 C65.6130859,0.594893031 67.6461819,0 69.856,0 C72.0658181,0 74.0989141,0.594893031 75.8467357,1.79077096 C78.0223262,3.2793329 79.184,5.57647734 79.184,8.248 C79.184,9.93006982 78.7234736,11.4637236 77.839302,12.7405812 L77.712,12.916 L77.7938385,13.0150204 C78.256558,13.5994555 78.5594688,14.3161996 78.6365715,15.099253 L78.646,15.232 L78.8718441,15.022909 C79.6394122,14.3294227 80.4726787,13.7180094 81.3697987,13.1920771 L81.7581828,12.971921 C84.1836402,11.6431921 86.7879526,10.968 89.512,10.968 C90.6968767,10.968 91.8449925,11.102039 92.9492496,11.3691301 L93.047,11.394 L93.048,5.472 C93.048,3.32980461 94.7319685,1.58092112 96.8483597,1.47689531 L97.048,1.472 L106.744,1.472 C108.953139,1.472 110.744,3.262861 110.744,5.472 L110.744,40.984 C110.744,43.193139 108.953139,44.984 106.744,44.984 L97.048,44.984 C96.3785639,44.984 95.7475372,44.81955 95.1931141,44.528844 L95.064,44.456 L94.7853243,44.5774974 C93.2647186,45.209491 91.6415153,45.5527886 89.9392105,45.601864 L89.512,45.608 C86.7080002,45.608 84.060083,44.9286354 81.6320227,43.5820692 C80.6316674,43.027287 79.7105326,42.3656687 78.8709169,41.6022353 L78.636,41.383 L78.6126297,41.5750907 C78.3364553,43.4396543 76.7736199,44.8848313 74.8556403,44.9791047 L74.656,44.984 L65.08,44.984 C64.745282,44.984 64.4201663,44.9428875 64.1094272,44.8654367 L64.003,44.836 L63.9839192,44.8420324 C63.701052,44.918784 63.4013916,44.9662049 63.0866448,44.9798798 L62.896,44.984 L53.44,44.984 C52.5306863,44.984 51.6532953,44.6743799 50.9487748,44.1135222 L50.816,44.002 L50.7553459,44.0312692 Z M88,24.472 L99,24.472 L99,33.472 L88,33.472 Z M89.512,18.968 C88.1400474,18.968 86.8563598,19.3008079 85.6018172,19.988079 C84.4062743,20.6430286 83.4302412,21.6086229 82.6368299,22.9530143 C81.871036,24.2506095 81.464,25.9352862 81.464,28.072 C81.464,30.4051038 81.8745104,32.2318752 82.6373416,33.5995226 C83.4026254,34.971567 84.3488657,35.9408864 85.5119773,36.5859308 C86.747917,37.2713646 88.0599998,37.608 89.512,37.608 C90.0829807,37.608 90.6144012,37.5386761 91.1169563,37.3975131 L91.18,37.377 L90.9422688,37.3466133 C89.3911316,37.1110984 87.9441524,36.4689662 86.6580612,35.4589526 L86.3849535,35.2369043 C84.3665495,33.5388819 83.448,31.0456762 83.448,28.072 C83.448,25.0718977 84.3833987,22.5700774 86.4582002,20.9069428 C87.5958029,19.995055 88.8596017,19.3697097 90.2101192,19.0541337 L90.37,19.02 L90.1373453,18.9943892 C90.03565,18.9855826 89.9327269,18.9789853 89.828521,18.9745897 L89.512,18.968 Z M39.8045819,31.2003803 C39.2670623,31.4989111 38.8169698,31.8479554 38.4421488,32.2477645 C38.0944931,32.6185973 37.904,33.1548001 37.904,34.072 C37.904,34.8385717 38.0613804,35.3515713 38.3547629,35.7436882 C38.7365806,36.2540023 39.2797428,36.6594614 40.0632984,36.9772367 C40.5339899,37.1681283 41.0501572,37.3138191 41.6146558,37.411787 L41.79,37.438 L41.6081961,37.3011801 C40.3958844,36.3474303 39.674568,34.9452169 39.6054671,33.3632405 L39.6,33.112 C39.6,32.4518551 39.7144753,31.8256816 39.9287702,31.2492593 L39.985,31.105 L39.8045819,31.2003803 Z M70.655,19.496 L69.079,19.496 L69.079,36.984 L70.655,36.984 L70.655,19.496 Z M24.441,28.352 L24.4879583,28.461064 C24.9300337,29.5745139 25.136,30.8133088 25.136,32.152 L25.136,36.904 L25.136,36.983 L26.785,36.983 L26.784,36.904 L26.784,31.048 C26.784,30.0827332 26.6531904,29.474184 26.4956229,29.2024372 C26.3350045,28.9254286 26.2011532,28.7974935 26.0468033,28.7230747 C25.6237272,28.5190916 25.1626307,28.4009595 24.6343109,28.3684475 L24.441,28.352 Z M8,30.723 L8,36.983 L9.456,36.983 L9.456,31.725 L9.37144681,31.6916273 C8.84894629,31.4724713 8.39448768,31.1470091 8.02390095,30.7495674 L8,30.723 Z M57.167,32.485 L57.1226125,32.5397859 C56.9261497,32.7640758 56.7015699,32.9686918 56.4498689,33.1478845 L56.416,33.169 L56.4903672,33.2432355 C56.7243613,33.4904943 56.9233267,33.7641983 57.0848097,34.0565595 L57.167,34.215 L57.167,32.485 Z M53.6480114,20.1106663 C54.7807878,21.1559457 55.472,22.5374534 55.472,24.184 L55.472,24.208 C55.472,24.7292242 55.4091482,25.2022394 55.2915876,25.6305866 L55.272,25.694 L56.6218275,26.7813948 C56.7778499,26.9071215 56.9211693,27.0406681 57.0520009,27.1807927 L57.167,27.311 L57.168,24.808 C57.168,23.5839354 56.8983087,22.7160832 56.3760602,22.0511399 L56.2510658,21.9012236 C55.5690988,21.1297484 54.6925187,20.5132731 53.5792029,20.0474624 L53.6480114,20.1106663 Z M8,23.556 L8,25.277 L8.685,24.475 L8,23.556 Z M20.887,24.119 L20.5797365,24.2453127 C20.4716089,24.2867948 20.3625716,24.3259067 20.2526587,24.3626629 L20.167,24.388 L20.2535708,24.4146048 C20.4300392,24.4710501 20.6029988,24.5334893 20.7722528,24.6020623 L20.889,24.652 L20.8818183,24.4995072 C20.8784302,24.3821592 20.8797355,24.2646686 20.8857378,24.1474393 L20.887,24.119 Z M41.672,20.073 L41.6447527,20.0857741 C41.2539537,20.2596081 40.896282,20.4512841 40.5695501,20.660962 L40.386,20.783 L41.049,20.783 L41.1094184,20.7029023 C41.2759333,20.4890434 41.4577319,20.2846914 41.6546917,20.0908477 L41.672,20.073 Z M21.32,9.646 L21.3553081,9.66375013 C22.0773982,10.0358623 22.7387615,10.5237101 23.3249609,11.1288191 C24.7862798,12.6372774 25.568,14.5369415 25.568,16.624 C25.568,17.8656301 25.3425965,19.0423278 24.8750207,20.1210674 L24.767,20.354 L24.7930945,20.3486497 C24.9983354,20.2954106 25.2392807,20.190022 25.5223175,20.0163372 L25.6972417,19.9038016 C26.1636247,19.5904505 26.59131,19.1028093 26.9827195,18.3837081 C27.3312555,17.7433745 27.528,16.869463 27.528,15.712 C27.528,13.5884284 26.9806183,12.1779552 25.9193397,11.1959423 C25.0498014,10.3913487 23.5797668,9.84246178 21.4335906,9.65509077 L21.32,9.646 Z M102.743,7.472 L101.047,7.472 L101.047,16.764 L101.266391,17.0567009 C101.636239,17.5652887 101.979734,18.1006587 102.296477,18.6620536 L102.529012,19.0879676 C102.60071,19.2237228 102.670388,19.3604212 102.738051,19.4980532 L102.743,19.509 L102.743,7.472 Z M8,15.727 L8,18.078 L8.05263225,18.0219536 C8.42387128,17.632498 8.87634655,17.3145043 9.3936587,17.100632 L9.456,17.076 L9.456,16.571 L9.43973962,16.5668966 C8.94161918,16.4065968 8.49814586,16.1533093 8.120361,15.8329085 L8,15.727 Z M69.856,8 C69.3596363,8 68.9741444,8.0805215 68.6484496,8.23869823 L68.639,8.243 L68.6976218,8.27397076 C68.9600067,8.39682361 69.2610037,8.46910868 69.6278051,8.48979113 L69.856,8.496 C70.3523637,8.496 70.7378556,8.4154785 71.0635504,8.25730177 L71.081,8.247 L71.0635504,8.23869823 C70.7843834,8.10311818 70.4612839,8.02459094 70.0620881,8.00492153 L69.856,8 Z M93.046,27.167 L92.9867373,27.0888769 C92.9283362,27.0198153 92.874859,26.9805994 92.8070722,26.9485682 C92.6042659,26.8527367 92.4462127,26.816 92.296,26.816 C92.0050505,26.816 91.7713958,26.9008889 91.4617998,27.1490572 L91.563,27.072 L91.5467906,27.1246165 C91.4969953,27.2962508 91.4599825,27.5524026 91.4504237,27.8940482 L91.448,28.072 C91.448,28.5705885 91.5024597,28.9224153 91.5793725,29.1311786 C91.582925,29.1408211 91.5849942,29.1474025 91.5856892,29.1514737 L91.6441492,29.2023866 C91.8544817,29.3612702 92.0209014,29.4282326 92.2032319,29.4441222 L92.296,29.448 C92.43979,29.448 92.5824452,29.4136712 92.7669237,29.3224456 C92.8460853,29.2832997 92.9075872,29.227948 92.9947431,29.0949983 C93.0142636,29.0652214 93.048,28.9382809 93.048,28.624 L93.047,28.614 L93.047,27.407 L93.0447801,27.3342457 C93.0402992,27.2105622 93.0335382,27.1614018 93.041102,27.1623441 L93.046,27.167 Z" id="Combined-Shape" fill="#DA3C3C"></path>
                    <path d="M139.168,5.584 C141.824,5.584 143.968,5.96 145.6,6.712 C147.232,7.464 148.424,8.492 149.176,9.796 C149.928,11.1 150.304,12.576 150.304,14.224 C150.304,15.904 149.976,17.356 149.32,18.58 C148.664,19.804 147.844,20.76 146.86,21.448 C145.876,22.136 144.888,22.528 143.896,22.624 C144.888,22.656 145.956,22.936 147.1,23.464 C148.244,23.992 149.22,24.848 150.028,26.032 C150.836,27.216 151.24,28.808 151.24,30.808 C151.24,32.632 150.872,34.316 150.136,35.86 C149.4,37.404 148.156,38.644 146.404,39.58 C144.652,40.516 142.24,40.984 139.168,40.984 L123.688,40.984 L123.688,5.584 L139.168,5.584 Z M132.904,21.856 L129.736,19.312 L136.648,19.312 C138.088,19.312 139.116,18.98 139.732,18.316 C140.348,17.652 140.656,16.848 140.656,15.904 C140.656,15.248 140.524,14.688 140.26,14.224 C139.996,13.76 139.568,13.404 138.976,13.156 C138.384,12.908 137.608,12.784 136.648,12.784 L128.536,12.784 L132.904,8.416 L132.904,21.856 Z M137.272,33.76 C138.712,33.76 139.756,33.412 140.404,32.716 C141.052,32.02 141.376,31.184 141.376,30.208 C141.376,29.728 141.296,29.264 141.136,28.816 C140.976,28.368 140.732,27.968 140.404,27.616 C140.076,27.264 139.652,26.984 139.132,26.776 C138.612,26.568 137.992,26.464 137.272,26.464 L129.736,26.464 L132.904,23.92 L132.904,38.128 L128.536,33.76 L137.272,33.76 Z M164.128,41.488 C162.336,41.488 160.868,41.208 159.724,40.648 C158.58,40.088 157.688,39.32 157.048,38.344 C156.408,37.368 155.96,36.26 155.704,35.02 C155.448,33.78 155.32,32.48 155.32,31.12 C155.32,30.56 155.32,29.964 155.32,29.332 C155.32,28.7 155.32,28.048 155.32,27.376 L155.32,15.496 L164.992,15.496 L164.992,25.744 C164.992,26.272 164.992,26.768 164.992,27.232 C164.992,27.696 164.992,28.12 164.992,28.504 C164.992,29.416 165.068,30.252 165.22,31.012 C165.372,31.772 165.688,32.38 166.168,32.836 C166.648,33.292 167.368,33.52 168.328,33.52 C169.288,33.52 170.08,33.26 170.704,32.74 C171.328,32.22 171.796,31.54 172.108,30.7 C172.42,29.86 172.576,28.968 172.576,28.024 L174.448,30.184 C174.448,31.928 174.212,33.496 173.74,34.888 C173.268,36.28 172.588,37.468 171.7,38.452 C170.812,39.436 169.732,40.188 168.46,40.708 C167.188,41.228 165.744,41.488 164.128,41.488 Z M172.576,40.984 L172.576,15.496 L182.248,15.496 L182.248,40.984 L172.576,40.984 Z M196.696,3.472 L196.696,40.984 L187.168,40.984 L187.168,3.472 L196.696,3.472 Z M211.504,5.472 L211.504,38.984 C211.504,40.0885695 210.608569,40.984 209.504,40.984 L201.976,40.984 L201.976,40.984 L201.976,3.472 L209.504,3.472 C210.608569,3.472 211.504,4.3674305 211.504,5.472 Z" id="Combined-Shape" stroke="#FCD351" stroke-width="8" stroke-linejoin="round"></path>
                    <path d="M139.168,5.584 C141.824,5.584 143.968,5.96 145.6,6.712 C147.232,7.464 148.424,8.492 149.176,9.796 C149.928,11.1 150.304,12.576 150.304,14.224 C150.304,15.904 149.976,17.356 149.32,18.58 C148.664,19.804 147.844,20.76 146.86,21.448 C145.876,22.136 144.888,22.528 143.896,22.624 C144.888,22.656 145.956,22.936 147.1,23.464 C148.244,23.992 149.22,24.848 150.028,26.032 C150.836,27.216 151.24,28.808 151.24,30.808 C151.24,32.632 150.872,34.316 150.136,35.86 C149.4,37.404 148.156,38.644 146.404,39.58 C144.652,40.516 142.24,40.984 139.168,40.984 L123.688,40.984 L123.688,5.584 L139.168,5.584 Z M132.904,21.856 L129.736,19.312 L136.648,19.312 C138.088,19.312 139.116,18.98 139.732,18.316 C140.348,17.652 140.656,16.848 140.656,15.904 C140.656,15.248 140.524,14.688 140.26,14.224 C139.996,13.76 139.568,13.404 138.976,13.156 C138.384,12.908 137.608,12.784 136.648,12.784 L128.536,12.784 L132.904,8.416 L132.904,21.856 Z M137.272,33.76 C138.712,33.76 139.756,33.412 140.404,32.716 C141.052,32.02 141.376,31.184 141.376,30.208 C141.376,29.728 141.296,29.264 141.136,28.816 C140.976,28.368 140.732,27.968 140.404,27.616 C140.076,27.264 139.652,26.984 139.132,26.776 C138.612,26.568 137.992,26.464 137.272,26.464 L129.736,26.464 L132.904,23.92 L132.904,38.128 L128.536,33.76 L137.272,33.76 Z M164.128,41.488 C162.336,41.488 160.868,41.208 159.724,40.648 C158.58,40.088 157.688,39.32 157.048,38.344 C156.408,37.368 155.96,36.26 155.704,35.02 C155.448,33.78 155.32,32.48 155.32,31.12 C155.32,30.56 155.32,29.964 155.32,29.332 C155.32,28.7 155.32,28.048 155.32,27.376 L155.32,15.496 L164.992,15.496 L164.992,25.744 C164.992,26.272 164.992,26.768 164.992,27.232 C164.992,27.696 164.992,28.12 164.992,28.504 C164.992,29.416 165.068,30.252 165.22,31.012 C165.372,31.772 165.688,32.38 166.168,32.836 C166.648,33.292 167.368,33.52 168.328,33.52 C169.288,33.52 170.08,33.26 170.704,32.74 C171.328,32.22 171.796,31.54 172.108,30.7 C172.42,29.86 172.576,28.968 172.576,28.024 L174.448,30.184 C174.448,31.928 174.212,33.496 173.74,34.888 C173.268,36.28 172.588,37.468 171.7,38.452 C170.812,39.436 169.732,40.188 168.46,40.708 C167.188,41.228 165.744,41.488 164.128,41.488 Z M172.576,40.984 L172.576,15.496 L182.248,15.496 L182.248,40.984 L172.576,40.984 Z M196.696,3.472 L196.696,40.984 L187.168,40.984 L187.168,3.472 L196.696,3.472 Z M211.504,5.472 L211.504,38.984 C211.504,40.0885695 210.608569,40.984 209.504,40.984 L201.976,40.984 L201.976,40.984 L201.976,3.472 L209.504,3.472 C210.608569,3.472 211.504,4.3674305 211.504,5.472 Z" id="Combined-Shape" fill="#181627"></path>
                </g>
                <path d="M4,38.984 L4,7.584 C4,6.4794305 4.8954305,5.584 6,5.584 L19.696,5.584 L19.696,5.584 C23.728,5.584 26.708,6.476 28.636,8.26 C30.564,10.044 31.528,12.528 31.528,15.712 C31.528,17.504 31.184,19.032 30.496,20.296 C29.808,21.56 28.952,22.536 27.928,23.224 C26.904,23.912 25.888,24.296 24.88,24.376 C25.92,24.44 26.888,24.688 27.784,25.12 C28.68,25.552 29.404,26.244 29.956,27.196 C30.508,28.148 30.784,29.432 30.784,31.048 C30.784,32.072 30.784,33.048 30.784,33.976 C30.784,34.904 30.784,35.88 30.784,36.904 C30.784,37.752 30.852,38.556 30.988,39.316 C31.124,40.076 31.336,40.632 31.624,40.984 L21.928,40.984 C21.672,40.584 21.476,40.016 21.34,39.28 C21.204,38.544 21.136,37.752 21.136,36.904 C21.136,36.024 21.136,35.232 21.136,34.528 C21.136,33.824 21.136,33.032 21.136,32.152 C21.136,30.872 20.864,29.86 20.32,29.116 C19.776,28.372 18.792,28 17.368,28 L10.936,28 L13.456,25.048 L13.456,40.984 L6,40.984 C4.8954305,40.984 4,40.0885695 4,38.984 Z M13.456,24.184 L10.936,20.8 L17.464,20.8 C18.28,20.8 18.996,20.632 19.612,20.296 C20.228,19.96 20.708,19.476 21.052,18.844 C21.396,18.212 21.568,17.472 21.568,16.624 C21.568,15.584 21.196,14.68 20.452,13.912 C19.708,13.144 18.696,12.76 17.416,12.76 L10.696,12.76 L13.456,9.88 L13.456,24.184 Z M43.456,41.56 C41.632,41.56 40,41.268 38.56,40.684 C37.12,40.1 35.984,39.252 35.152,38.14 C34.32,37.028 33.904,35.672 33.904,34.072 C33.904,32.184 34.444,30.664 35.524,29.512 C36.604,28.36 37.988,27.488 39.676,26.896 C41.364,26.304 43.112,25.928 44.92,25.768 C47.496,25.528 49.232,25.32 50.128,25.144 C51.024,24.968 51.472,24.656 51.472,24.208 C51.472,24.208 51.472,24.204 51.472,24.196 C51.472,24.188 51.472,24.184 51.472,24.184 C51.472,23.592 51.116,23.084 50.404,22.66 C49.692,22.236 48.744,22.024 47.56,22.024 C46.28,22.024 45.328,22.26 44.704,22.732 C44.08,23.204 43.768,23.888 43.768,24.784 L34.24,24.784 C34.24,22.64 34.84,20.84 36.04,19.384 C37.24,17.928 38.852,16.828 40.876,16.084 C42.9,15.34 45.152,14.968 47.632,14.968 C49.984,14.968 52.188,15.32 54.244,16.024 C56.3,16.728 57.968,17.804 59.248,19.252 C60.528,20.7 61.168,22.552 61.168,24.808 C61.168,25.144 61.168,25.48 61.168,25.816 C61.168,26.152 61.168,26.488 61.168,26.824 L61.168,34.72 C61.168,35.424 61.184,36.104 61.216,36.76 C61.248,37.416 61.344,38.024 61.504,38.584 C61.68,39.176 61.912,39.684 62.2,40.108 C62.488,40.532 62.72,40.824 62.896,40.984 L53.44,40.984 C53.296,40.84 53.088,40.576 52.816,40.192 C52.544,39.808 52.32,39.368 52.144,38.872 C51.904,38.152 51.732,37.476 51.628,36.844 C51.524,36.212 51.472,35.44 51.472,34.528 L53.584,35.992 C53.152,37.16 52.42,38.16 51.388,38.992 C50.356,39.824 49.148,40.46 47.764,40.9 C46.38,41.34 44.944,41.56 43.456,41.56 Z M46.336,34.696 C47.168,34.696 47.988,34.512 48.796,34.144 C49.604,33.776 50.28,33.164 50.824,32.308 C51.368,31.452 51.64,30.288 51.64,28.816 L51.64,27.904 L54.112,29.896 C53.056,30.264 51.88,30.572 50.584,30.82 C49.288,31.068 48.048,31.256 46.864,31.384 C45.76,31.496 44.94,31.676 44.404,31.924 C43.868,32.172 43.6,32.568 43.6,33.112 C43.6,33.656 43.84,34.056 44.32,34.312 C44.8,34.568 45.472,34.696 46.336,34.696 Z M65.08,40.984 L65.08,15.496 L74.656,15.496 L74.656,40.984 L65.08,40.984 Z M69.856,12.496 C68.432,12.496 67.188,12.128 66.124,11.392 C65.06,10.656 64.528,9.608 64.528,8.248 C64.528,6.872 65.06,5.82 66.124,5.092 C67.188,4.364 68.432,4 69.856,4 C71.28,4 72.524,4.364 73.588,5.092 C74.652,5.82 75.184,6.872 75.184,8.248 C75.184,9.624 74.652,10.676 73.588,11.404 C72.524,12.132 71.28,12.496 69.856,12.496 Z M89.512,41.608 C87.384,41.608 85.404,41.1 83.572,40.084 C81.74,39.068 80.264,37.556 79.144,35.548 C78.024,33.54 77.464,31.048 77.464,28.072 C77.464,25.256 78.04,22.872 79.192,20.92 C80.344,18.968 81.84,17.488 83.68,16.48 C85.52,15.472 87.464,14.968 89.512,14.968 C91.56,14.968 93.408,15.504 95.056,16.576 C96.704,17.648 98.016,19.108 98.992,20.956 C99.968,22.804 100.456,24.912 100.456,27.28 C100.456,27.376 100.456,27.468 100.456,27.556 C100.456,27.644 100.456,27.736 100.456,27.832 L97.048,27.832 C97.048,27.784 97.048,27.732 97.048,27.676 C97.048,27.62 97.048,27.568 97.048,27.52 C97.048,26.448 96.808,25.568 96.328,24.88 C95.848,24.192 95.244,23.676 94.516,23.332 C93.788,22.988 93.048,22.816 92.296,22.816 C91.08,22.816 89.968,23.22 88.96,24.028 C87.952,24.836 87.448,26.184 87.448,28.072 C87.448,29.96 87.952,31.328 88.96,32.176 C89.968,33.024 91.08,33.448 92.296,33.448 C93.064,33.448 93.812,33.268 94.54,32.908 C95.268,32.548 95.868,32.008 96.34,31.288 C96.812,30.568 97.048,29.68 97.048,28.624 L100.456,28.864 C100.456,31.216 99.968,33.356 98.992,35.284 C98.016,37.212 96.704,38.748 95.056,39.892 C93.408,41.036 91.56,41.608 89.512,41.608 Z M97.048,40.984 L97.048,4.984 L106.744,4.984 L106.744,40.984 L97.048,40.984 Z" id="Combined-Shape" fill="#181627"></path>
            </g>
        </g>
    </g>
</svg>