<?xml version="1.0" encoding="UTF-8"?>
<svg width="20px" height="20px" viewBox="0 0 20 20" version="1.1" xmlns="http://www.w3.org/2000/svg" xmlns:xlink="http://www.w3.org/1999/xlink">
    <title>Actions / Toggle / radio-button / 20@1.5x</title>
    <g id="Partnership" stroke="none" stroke-width="1" fill="none" fill-rule="evenodd">
        <g id="Partnership---06" transform="translate(-528, -357)" fill="#FFD127">
            <g id="Group-13" transform="translate(504, 325)">
                <g id="Actions-/-Toggle-/-radio-button-/-20" transform="translate(24, 32)">
                    <path d="M10,0 C15.5228475,0 20,4.4771525 20,10 C20,15.5228475 15.5228475,20 10,20 C4.4771525,20 0,15.5228475 0,10 C0,4.4771525 4.4771525,0 10,0 Z M10,0.833333333 C4.93738979,0.833333333 0.833333333,4.93738979 0.833333333,10 C0.833333333,15.0626102 4.93738979,19.1666667 10,19.1666667 C15.0626102,19.1666667 19.1666667,15.0626102 19.1666667,10 C19.1666667,4.93738979 15.0626102,0.833333333 10,0.833333333 Z" id="Oval"></path>
                </g>
            </g>
        </g>
    </g>
</svg>