<?xml version="1.0" encoding="UTF-8"?>
<svg width="22px" height="17.8772362px" viewBox="0 0 22 17.8772362" version="1.1" xmlns="http://www.w3.org/2000/svg" xmlns:xlink="http://www.w3.org/1999/xlink">
    <title>Brand / Social / logo--twitter / 24@2x</title>
    <g id="Login" stroke="none" stroke-width="1" fill="none" fill-rule="evenodd">
        <g id="Homepage" transform="translate(-375.000000, -311.063017)" fill="#3CA9DA">
            <g id="Group-10" transform="translate(319.000000, 238.000000)">
                <g id="Group-9" transform="translate(1.000000, 52.000000)">
                    <g id="Group" transform="translate(50.000000, 14.000000)">
                        <g id="Brand-/-Social-/-logo--twitter-/-24" transform="translate(5.000000, 7.063017)">
                            <path d="M6.92,17.8769834 C10.331913,17.8984426 13.6103003,16.5525529 16.0229349,14.1399183 C18.4355695,11.7272838 19.7814592,8.44889648 19.76,5.03698343 C19.76,4.83698343 19.76,4.64698343 19.76,4.44698343 C20.6355927,3.80547217 21.39346,3.01715486 22,2.11698343 C21.1755175,2.47757889 20.3031099,2.71673308 19.41,2.82698343 C20.3569106,2.26276378 21.0674002,1.37465172 21.41,0.326983433 C20.5275212,0.856424314 19.5598158,1.22861872 18.55,1.42698343 C17.1518418,-0.0627917438 14.9281541,-0.429430735 13.1257388,0.532637678 C11.3233235,1.49470609 10.3903795,3.54624854 10.85,5.53698343 C7.22180191,5.35889578 3.84048219,3.64642096 1.55,0.826983433 C0.364960856,2.88376367 0.977064267,5.507064 2.95,6.82698343 C2.24861239,6.79993243 1.5634527,6.60808771 0.95,6.26698343 L0.95,6.31698343 C0.937157078,8.45142983 2.41605299,10.3052571 4.5,10.7669834 C3.84763801,10.9424437 3.16429216,10.9697775 2.5,10.8469834 C3.09993949,12.6571134 4.77351779,13.8942802 6.68,13.9369834 C5.08921111,15.2175074 3.11209136,15.9223629 1.07,15.9369834 C0.711953176,15.9266208 0.354747161,15.8965754 0,15.8469834 C2.06695516,17.1638815 4.46920442,17.8581732 6.92,17.8469834" id="Fill"></path>
                        </g>
                    </g>
                </g>
            </g>
        </g>
    </g>
</svg>